<mxfile host="app.diagrams.net" modified="2022-05-01T20:17:42.759Z" agent="5.0 (Windows NT 10.0; Win64; x64) AppleWebKit/537.36 (KHTML, like Gecko) Chrome/100.0.4896.127 Safari/537.36" etag="o--Qr28eiMchLbnL7aE0" version="17.5.0" type="github">
  <diagram id="th5sYOqS4RSRxmdxA4Nn" name="Page-1">
    <mxGraphModel dx="1481" dy="739" grid="1" gridSize="10" guides="1" tooltips="1" connect="1" arrows="1" fold="1" page="1" pageScale="1" pageWidth="850" pageHeight="1100" math="1" shadow="0">
      <root>
        <mxCell id="0" />
        <mxCell id="1" parent="0" />
        <mxCell id="fC3xw0LeXL2thSykTnKu-1" value="&lt;font style=&quot;font-size: 40px&quot;&gt;$$\frac{\partial \iiint_v^{\vec{i}\sum_{f}^{fields} p (\frac{\Delta Q}{\Delta t}&amp;lt;0)\vec{i}_f}}{\partial T}$$&lt;/font&gt;" style="text;html=1;align=center;verticalAlign=middle;resizable=0;points=[];autosize=1;strokeColor=none;fillColor=none;" parent="1" vertex="1">
          <mxGeometry x="-805" y="320" width="1740" height="30" as="geometry" />
        </mxCell>
        <mxCell id="fC3xw0LeXL2thSykTnKu-2" value="&lt;font style=&quot;font-size: 20px&quot;&gt;&amp;nbsp; &amp;nbsp; &amp;nbsp; &amp;nbsp; &amp;nbsp; &amp;nbsp; &amp;nbsp; &amp;nbsp; &amp;nbsp; &amp;nbsp; &amp;nbsp; &amp;nbsp; &amp;nbsp; &amp;nbsp; &amp;nbsp; &amp;nbsp; &amp;nbsp; &amp;nbsp; &amp;nbsp; &amp;nbsp; &amp;nbsp; &amp;nbsp; LOCAL (PRE-RECONCILIATION)&lt;br&gt;&lt;br&gt;&lt;/font&gt;" style="text;html=1;align=center;verticalAlign=middle;resizable=0;points=[];autosize=1;strokeColor=none;fillColor=none;fontSize=40;" parent="1" vertex="1">
          <mxGeometry x="-130" y="180" width="560" height="120" as="geometry" />
        </mxCell>
        <mxCell id="fC3xw0LeXL2thSykTnKu-3" value="&lt;font style=&quot;font-size: 20px&quot;&gt;TIME&lt;/font&gt;" style="text;html=1;align=center;verticalAlign=middle;resizable=0;points=[];autosize=1;strokeColor=none;fillColor=none;fontSize=25;" parent="1" vertex="1">
          <mxGeometry x="120" y="220" width="60" height="40" as="geometry" />
        </mxCell>
        <mxCell id="fC3xw0LeXL2thSykTnKu-4" value="&lt;font style=&quot;font-size: 20px&quot;&gt;(POST-RECONCILIATION)&lt;/font&gt;" style="text;html=1;align=center;verticalAlign=middle;resizable=0;points=[];autosize=1;strokeColor=none;fillColor=none;fontSize=25;" parent="1" vertex="1">
          <mxGeometry x="247" y="410" width="260" height="40" as="geometry" />
        </mxCell>
        <mxCell id="fC3xw0LeXL2thSykTnKu-5" value="AGGREGATE&lt;br&gt;TIME" style="text;html=1;align=center;verticalAlign=middle;resizable=0;points=[];autosize=1;strokeColor=none;fillColor=none;fontSize=20;" parent="1" vertex="1">
          <mxGeometry x="120" y="420" width="140" height="50" as="geometry" />
        </mxCell>
        <mxCell id="fC3xw0LeXL2thSykTnKu-6" value="" style="endArrow=classic;html=1;fontSize=20;curved=1;exitX=0.012;exitY=0.388;exitDx=0;exitDy=0;exitPerimeter=0;" parent="1" edge="1">
          <mxGeometry width="50" height="50" relative="1" as="geometry">
            <mxPoint x="126.68000000000006" y="433.4" as="sourcePoint" />
            <mxPoint x="75" y="404" as="targetPoint" />
            <Array as="points">
              <mxPoint x="95" y="424" />
            </Array>
          </mxGeometry>
        </mxCell>
        <mxCell id="fC3xw0LeXL2thSykTnKu-7" value="" style="endArrow=classic;html=1;fontSize=20;curved=1;" parent="1" edge="1">
          <mxGeometry width="50" height="50" relative="1" as="geometry">
            <mxPoint x="149.70999999999998" y="250" as="sourcePoint" />
            <mxPoint x="149.70999999999998" y="270" as="targetPoint" />
          </mxGeometry>
        </mxCell>
      </root>
    </mxGraphModel>
  </diagram>
</mxfile>
